<?xml version="1.0" encoding="UTF-8"?>
<svg width="110px" height="110px" viewBox="0 0 110 110" version="1.1" xmlns="http://www.w3.org/2000/svg" xmlns:xlink="http://www.w3.org/1999/xlink">
    <title>Artboard</title>
    <g id="Artboard" stroke="none" stroke-width="1" fill="none" fill-rule="evenodd">
        <rect fill="#FFFFFF" x="0" y="0" width="110" height="110"></rect>
        <g id="Group" fill="#CD2028" fill-rule="nonzero">
            <g transform="translate(54.721901, 55.444524) scale(-1, 1) rotate(-180.000000) translate(-54.721901, -55.444524) translate(0.221901, 0.944524)" id="Shape">
                <path d="M50.9540839,108.787108 C38.2779726,107.538913 28.8749054,103.849804 20.0265915,96.6380121 C-0.63796621,79.8289893 -6.07454783,49.8723151 7.40595557,26.9887445 C20.4426564,4.79861541 47.0708113,-5.27015565 71.4522156,2.74602847 C89.2320565,8.57093735 102.851248,23.2996355 107.289274,41.4123284 C109.23091,49.4285125 109.286386,58.9980056 107.400225,66.9587144 C102.324233,88.538615 84.4889164,104.95931 62.5484263,108.260092 M28.3756275,71.5354286 C31.8983105,70.1762832 35.0049286,68.8448754 35.3100429,68.5674988 C35.6428948,68.2623845 35.8370584,67.735369 35.8370584,67.0974027 C35.8370584,66.4871742 34.2837494,62.1323614 31.8150975,55.6972239 C27.7099237,45.0736997 27.1551704,44.0474062 25.8237627,44.0474062 C25.3244848,44.0474062 16.4206955,47.3759255 13.0644385,48.8182839 C11.8439814,49.3175618 11.1505399,50.1774293 11.1505399,51.1205098 C11.1505399,51.3424111 13.0089632,56.3629278 15.3111891,62.2710497 C18.0017422,69.205465 19.6660019,73.1996882 20.0543291,73.5325402 C20.3871811,73.7821791 20.9419343,74.0040804 21.3302616,74.0040804 C21.6908512,74.0040804 24.8529445,72.894574 28.3756275,71.5354286 Z M93.3927057,70.0653325 C93.8087706,69.8711689 94.2803108,69.4273663 94.5022121,69.0113014 C94.6963758,68.6229741 96.1387342,63.4360315 97.6643055,57.4446966 C100.382596,47.0153359 100.465809,46.5437957 100.077482,45.6284529 C99.6059418,44.4912088 99.9942691,44.6298971 91.6729707,42.4940972 C85.1268826,40.8298375 84.4334411,40.7743621 83.6567866,41.9948192 C83.046558,42.8824244 77.720927,63.2418678 77.720927,64.6010132 C77.720927,66.4594365 78.053779,66.6536002 85.4874722,68.5952365 C89.2320565,69.5660546 92.3664122,70.3704468 92.4773629,70.3704468 C92.5883135,70.3981844 93.0043784,70.2594961 93.3927057,70.0653325 Z M56.6957797,66.8200261 C58.637416,66.3207482 60.8286913,65.5440937 62.409738,64.7397015 C67.2360911,62.326525 67.402517,62.2710497 71.8128052,62.326525 L75.7515531,62.3542627 L77.1384361,57.9717122 C78.4698439,53.7555876 80.5501685,46.2386814 80.4114802,46.0999931 C80.3837425,46.0445178 76.417257,48.5963826 71.6186415,51.7030007 C66.8200261,54.8373564 61.7162964,57.9439745 60.3016757,58.637416 C57.5556473,59.9410861 53.9774889,61.2447562 53.0898838,61.2447562 C52.7847695,61.2447562 51.2314605,60.5790523 49.6781514,59.8023978 C47.1540243,58.5264654 46.5715334,58.3323018 45.129175,58.3323018 C43.2152763,58.3323018 41.6619673,58.887055 41.6619673,59.5527589 C41.6619673,60.1075121 47.7919905,66.2375352 49.1511359,67.0419274 C50.5380189,67.8740573 52.8402448,67.7908443 56.6957797,66.8200261 Z M44.5744217,64.1849483 C45.0736997,63.8243587 45.0736997,63.7688834 44.1306192,62.8812782 C43.6036036,62.3542627 42.5773101,61.4389198 41.8561309,60.8009536 C41.1349517,60.1907251 40.5524609,59.5250212 40.5524609,59.3308576 C40.5524609,59.1366939 41.2736401,58.6651537 42.1612452,58.2490888 C43.4371776,57.6665979 44.1583568,57.5001719 45.8226165,57.5001719 C47.7642528,57.5001719 48.0971047,57.5833849 50.5380189,58.8315797 C54.6154551,60.8564289 55.281159,60.7454783 62.9922289,56.3351902 C71.2025766,51.6475254 76.417257,48.2080554 79.2464984,45.6284529 L80.6056438,44.4079958 L80.2727919,43.243014 C80.0786282,42.6050478 79.5516127,41.689705 79.1355478,41.2181647 L78.3311556,40.3305596 L76.0289297,41.6619673 C74.7529973,42.4108842 71.2303143,44.5744217 68.2069092,46.4328451 C65.2112418,48.319006 62.6039016,49.8723151 62.4652133,49.8723151 C61.7440341,49.8723151 62.3820003,49.2343489 64.4900626,47.9306788 C67.7631066,45.8503542 74.5033583,41.1349517 74.9194232,40.6079362 C75.2245375,40.2473466 75.2245375,39.9977076 74.9471609,39.3042661 C74.531096,38.333448 73.0609999,37.1129909 72.2566078,37.1129909 C71.6463792,37.1129909 65.0448158,40.9130505 61.8272471,43.1043257 C59.8578731,44.4634711 58.5542031,44.962749 58.5819407,44.4079958 C58.5819407,44.2693075 61.1338056,42.5218348 64.2404236,40.4969855 C67.3470417,38.4721363 70.0653325,36.6414506 70.2317585,36.4195493 C70.8974623,35.6428948 68.2901222,32.674965 66.9864521,32.674965 C66.7922885,32.674965 65.1002911,33.7289962 63.2418678,35.0326663 C61.3557069,36.3085987 58.970268,37.8896454 57.9439745,38.5276116 C56.3351902,39.5261674 56.0023382,39.637118 55.6694863,39.3042661 C55.3366343,38.9714142 55.6972239,38.6662999 58.1658758,37.1407285 C61.2447562,35.2268299 63.2973431,33.6735208 63.8243587,32.8691287 C64.4068496,31.9537858 62.9367535,29.3464457 61.8272471,29.3464457 C61.2170185,29.3464457 58.1658758,30.95523 55.4753227,32.7027027 L53.7555876,33.7844715 L53.2563097,32.4808014 C52.3687046,30.0676249 50.6489696,29.4573963 49.1233982,30.9829677 C48.1525801,31.9815235 48.1248424,32.3698508 48.9847099,34.6720767 C49.5117255,36.0312221 49.5949384,36.5582376 49.3452995,36.8078766 C48.8460216,37.3071545 48.6795956,37.1684662 48.0416294,35.5319442 C47.7087775,34.644339 47.1262866,33.6457832 46.7379593,33.3129313 C45.5175022,32.1756871 43.7422919,32.6472274 43.076588,34.2837494 C42.7714738,34.9771909 42.8546867,35.3932559 43.6868166,37.6400064 C44.6298971,40.0809206 44.6298971,40.1918713 44.1306192,40.4692479 C43.5481283,40.7743621 43.6036036,40.8298375 42.7437361,38.3889233 C42.0225569,36.4195493 40.2473466,35.6983701 38.8049882,36.8356142 C37.6954817,37.7232194 37.6677441,38.4998739 38.7217752,41.2736401 C39.6093804,43.6868166 39.637118,43.7977672 39.1101025,44.0751438 C38.6662999,44.3247828 38.5276116,44.2138322 38.1947596,43.3817023 C37.9728584,42.8269491 37.7786947,42.2999335 37.7786947,42.1612452 C37.7786947,42.0225569 37.4735805,41.6342296 37.0852532,41.2736401 C36.0589597,40.3305596 34.5888637,40.3582972 33.7289962,41.3845907 C32.8691287,42.3554088 32.8968663,43.0488504 33.8122092,45.3233386 C34.561126,47.2372372 34.5056507,47.9584164 33.5348325,48.1525801 C33.2297183,48.2080554 32.924604,47.6810398 32.4530638,46.2664191 C32.0924742,45.1846503 31.6764092,44.2970451 31.5377209,44.3247828 C31.371295,44.3525205 31.038443,44.7685854 30.7333287,45.2678633 L30.2340508,46.1832061 L33.2297183,54.3380785 C34.8662403,58.8315797 36.2253857,62.5484263 36.280861,62.6039016 C36.3363363,62.6593769 37.5845311,63.1031795 39.0823648,63.6301951 C41.9948192,64.6287509 43.7422919,64.8229145 44.5744217,64.1849483 Z"></path>
            </g>
        </g>
    </g>
</svg>