<?xml version="1.0" encoding="UTF-8"?>
<svg width="110px" height="110px" viewBox="0 0 110 110" version="1.1" xmlns="http://www.w3.org/2000/svg" xmlns:xlink="http://www.w3.org/1999/xlink">
    <title>Search Icon</title>
    <g id="Search-Icon" stroke="none" stroke-width="1" fill="none" fill-rule="evenodd">
        <circle id="Oval" fill="#CD2028" cx="55" cy="55" r="55"></circle>
        <path d="M48.8798936,24 C62.0683947,24 72.7597873,34.7154494 72.7597873,47.9336262 C72.7597873,52.4630548 71.5043992,56.698612 69.3233289,60.3098502 L85,77.1585408 C84.73235,79.0300493 84.4570965,80.3459194 84.1742394,81.1061512 C83.8913822,81.866383 83.3442527,82.7608224 82.5328507,83.7894693 C81.6770676,84.5079393 80.7853013,85.0138108 79.8575519,85.3070836 C78.9298024,85.6003565 77.4906124,85.8313286 75.539982,86 L59.8882281,69.1780488 C56.5941196,70.8961655 52.8501568,71.8672524 48.8798936,71.8672524 C35.6913926,71.8672524 25,61.151803 25,47.9336262 C25,34.7154494 35.6913926,24 48.8798936,24 Z M48.8798936,32.9751098 C40.6370805,32.9751098 33.9549601,39.6722657 33.9549601,47.9336262 C33.9549601,56.1949867 40.6370805,62.8921426 48.8798936,62.8921426 C57.1227068,62.8921426 63.8048272,56.1949867 63.8048272,47.9336262 C63.8048272,39.6722657 57.1227068,32.9751098 48.8798936,32.9751098 Z" id="Combined-Shape" fill="#FFFFFF" transform="translate(55.000000, 55.000000) scale(-1, 1) translate(-55.000000, -55.000000) "></path>
    </g>
</svg>